<?xml version="1.0" standalone="no"?>
<!DOCTYPE svg PUBLIC "-//W3C//DTD SVG 1.1//EN" "http://www.w3.org/Graphics/SVG/1.1/DTD/svg11.dtd" >
<svg xmlns="http://www.w3.org/2000/svg" xmlns:xlink="http://www.w3.org/1999/xlink" version="1.1">
<metadata></metadata>
<defs>
<font id="bebas_neuebook" horiz-adv-x="577" >
<font-face units-per-em="2048" ascent="1536" descent="-512" />
<missing-glyph horiz-adv-x="234" />
<glyph horiz-adv-x="0" />
<glyph unicode="&#xd;" horiz-adv-x="234" />
<glyph horiz-adv-x="0" />
<glyph horiz-adv-x="0" />
<glyph unicode=" "  horiz-adv-x="234" />
<glyph unicode="&#x09;" horiz-adv-x="234" />
<glyph unicode="&#xa0;" horiz-adv-x="234" />
<glyph unicode="!" horiz-adv-x="190" d="M61 508v555h69v-555l-9 -273h-51zM62 0v132h67v-132h-67z" />
<glyph unicode="&#x22;" horiz-adv-x="311" d="M61 1063h68l-9 -265h-52zM184 1063h68l-9 -265h-51z" />
<glyph unicode="#" horiz-adv-x="626" d="M47 337l5 51h100l36 344h-101l4 52h101l29 279h59l-28 -279h177l28 279h60l-29 -279h92l-4 -52h-93l-36 -344h92l-4 -51h-92l-37 -337h-59l36 337h-179l-35 -337h-58l36 337h-100zM211 388h177l36 344h-178z" />
<glyph unicode="$" horiz-adv-x="571" d="M58 260v60h66v-62q0 -87 36.5 -142t124.5 -55t124 55t36 142q0 63 -28 107t-71 80.5t-92.5 68t-92.5 71.5t-71 90.5t-28 124.5q0 112 46.5 182t149.5 81v91h59v-91q53 -5 90 -27t61.5 -57t35 -80.5t10.5 -98.5v-24h-67v27q0 42 -8 78.5t-27.5 62.5t-49.5 41t-73 15 q-86 0 -121.5 -55.5t-35.5 -140.5q0 -63 28 -108.5t71.5 -82t92.5 -68t92.5 -71t71 -90t27.5 -124.5q0 -53 -11 -98t-35 -80t-61.5 -57t-90.5 -26v-86h-59v86q-54 4 -91.5 25t-61.5 56t-35.5 81.5t-11.5 98.5z" />
<glyph unicode="%" horiz-adv-x="916" d="M58 570v322q0 37 8 68t24.5 54t44 36.5t65.5 13.5q77 0 110.5 -49t33.5 -123v-322q0 -73 -33 -122t-111 -49q-38 0 -65.5 13.5t-44 36t-24.5 54t-8 67.5zM104 567q0 -50 21 -87t75 -37q53 0 74 37t21 87v327q0 52 -21 89t-74 37q-55 0 -75.5 -37t-20.5 -89v-327zM224 0 l418 1063h46l-418 -1063h-46zM573 169v319q0 36 8.5 67.5t25 54.5t44 37t66.5 14q38 0 65.5 -14t44.5 -37t24.5 -54t7.5 -68v-319q0 -36 -7.5 -67t-24.5 -54.5t-44.5 -37t-65.5 -13.5q-39 0 -66.5 13.5t-44 37t-25 54.5t-8.5 67zM622 166q0 -50 21 -87.5t74 -37.5 q55 0 75.5 38t20.5 87v325q0 52 -20.5 88t-75.5 36q-53 0 -74 -36.5t-21 -87.5v-325z" />
<glyph unicode="&#x26;" horiz-adv-x="610" d="M61 236v101q0 75 33 135t106 84q-73 22 -106 80t-33 135v26q0 129 62.5 196.5t191.5 67.5h150v-63h-150q-185 0 -185 -198v-42q0 -73 38 -121.5t108 -51.5h164v118h69v-118h58v-63h-58v-383q0 -39 3 -72.5t24 -66.5h-72q-12 23 -17.5 46.5t-5.5 54.5q-24 -56 -71 -83 t-108 -27q-104 0 -152.5 68t-48.5 177zM130 241q0 -83 37 -134.5t119 -51.5q67 0 109.5 38.5t44.5 109.5v319h-155q-76 -5 -115.5 -54.5t-39.5 -129.5v-97z" />
<glyph unicode="'" horiz-adv-x="184" d="M59 1063h67l-8 -265h-51z" />
<glyph unicode="(" horiz-adv-x="350" d="M65 235v592q0 57 10 100t33.5 73.5t63 46.5t98.5 16h33v-60h-30q-41 0 -68 -12t-42.5 -34.5t-21.5 -55t-6 -74.5v-592q0 -41 6 -73.5t21.5 -55t41.5 -35t69 -12.5h30v-59h-33q-59 0 -98.5 16t-63 46t-33.5 73.5t-10 99.5z" />
<glyph unicode=")" horiz-adv-x="350" d="M47 0v59h30q84 0 112 47t28 129v592q0 81 -28 128.5t-112 47.5h-30v60h34q118 0 161.5 -61.5t43.5 -174.5v-592q0 -57 -10 -100t-33 -73t-63.5 -46t-98.5 -16h-34z" />
<glyph unicode="*" horiz-adv-x="596" d="M50 846l18 56l215 -81l-15 232h59l-13 -232l215 77l18 -55l-224 -50l144 -180l-47 -34l-122 196l-120 -195l-49 33l146 180z" />
<glyph unicode="+" horiz-adv-x="587" d="M53 505v51h215v219h52v-219h216v-51h-216v-222h-52v222h-215z" />
<glyph unicode="," horiz-adv-x="202" d="M68 -115l30 115h-23v133h68v-127l-45 -121h-30z" />
<glyph unicode="-" horiz-adv-x="393" d="M58 499v63h279v-63h-279z" />
<glyph unicode="." horiz-adv-x="189" d="M61 0v133h68v-133h-68z" />
<glyph unicode="/" horiz-adv-x="561" d="M41 0l419 1061h62l-419 -1061h-62z" />
<glyph unicode="0" d="M56 259v542q0 60 14 109t42.5 85t72.5 55.5t104 19.5q61 0 105 -19.5t73 -55.5t42.5 -85t13.5 -109v-542q0 -58 -13.5 -107t-42.5 -84.5t-73 -56t-105 -20.5q-60 0 -104 20.5t-72.5 56t-42.5 84.5t-14 107zM126 256q0 -88 37.5 -144.5t125.5 -56.5t126 56.5t38 144.5v551 q0 86 -38 142.5t-126 56.5t-125.5 -57t-37.5 -142v-551z" />
<glyph unicode="1" horiz-adv-x="425" d="M97 853v61q78 6 118.5 47.5t62.5 101.5h54v-1063h-70v943q-29 -38 -70.5 -61.5t-94.5 -28.5z" />
<glyph unicode="2" horiz-adv-x="571" d="M61 0v52q0 94 28.5 165t71.5 129.5t93.5 109t93.5 102t71.5 109t28.5 130.5q0 92 -35.5 150.5t-126.5 58.5q-43 0 -73.5 -15.5t-49.5 -44t-27.5 -65.5t-8.5 -80v-72h-66v68q0 58 13 108t40 86.5t70 57.5t105 21q63 0 106 -20.5t70.5 -57t40 -85.5t12.5 -107 q0 -76 -28.5 -138t-71 -116.5t-92.5 -105.5t-93.5 -106t-72 -118t-30.5 -141v-11h379v-64h-448z" />
<glyph unicode="3" horiz-adv-x="572" d="M58 259v61h66v-64q0 -44 8.5 -80.5t28.5 -63.5t50 -42t74 -15q88 0 124 57t36 148v83q0 83 -39.5 129t-117.5 50h-71v63h74q72 5 113 52.5t41 124.5v38q0 91 -36 148.5t-124 57.5t-124.5 -57t-36.5 -142v-43h-66v37q0 58 13 107.5t40.5 85t71 56t103.5 20.5 q61 0 104.5 -20.5t71.5 -56t40.5 -85t12.5 -107.5v-25q0 -78 -36 -137t-105 -83q73 -21 107 -78.5t34 -136.5v-82q0 -58 -12.5 -107t-40.5 -84.5t-71.5 -56t-104.5 -20.5q-60 0 -103.5 20.5t-71 56t-40.5 84.5t-13 107z" />
<glyph unicode="4" horiz-adv-x="610" d="M47 235v65l352 763h78v-765h90v-63h-90v-235h-68v235h-362zM111 298h298v634z" />
<glyph unicode="5" horiz-adv-x="572" d="M58 259v58h66v-61q0 -42 9.5 -78.5t28.5 -63.5t49 -42.5t74 -15.5t75 15.5t50 42.5t28 63.5t9 78.5v179q0 42 -9 78.5t-28 64t-50 42.5t-75 15q-119 0 -152 -121v-18h-65l27 567h399v-65h-335l-20 -379q27 43 70 62t102 19q55 0 94 -19.5t64 -54.5t36.5 -82.5 t11.5 -102.5v-182q0 -58 -13 -107t-41 -84.5t-72 -56t-105 -20.5q-60 0 -103.5 20.5t-71 56t-40.5 84.5t-13 107z" />
<glyph unicode="6" horiz-adv-x="578" d="M56 259v539q0 60 14 110t41.5 86.5t72.5 56t107 19.5q61 0 104 -19.5t71 -54.5t40.5 -83.5t12.5 -105.5v-13h-66v17q0 85 -36.5 140t-124.5 55q-45 0 -76 -15t-51.5 -42.5t-29.5 -66t-9 -85.5v-246q26 44 71.5 71t117.5 27q56 0 95.5 -20t64.5 -55t37.5 -82t12.5 -103 v-130q0 -58 -14 -107t-42.5 -84.5t-72.5 -56t-105 -20.5q-62 0 -106 20.5t-72.5 56t-42.5 84.5t-14 107zM126 256q0 -88 37.5 -144t127.5 -56q88 0 125.5 56t37.5 144v129q0 85 -37.5 141.5t-125.5 56.5q-90 0 -127.5 -56.5t-37.5 -141.5v-129z" />
<glyph unicode="7" horiz-adv-x="572" d="M56 998v65h461v-64l-299 -999h-71l298 998h-389z" />
<glyph unicode="8" horiz-adv-x="587" d="M53 253v76q0 85 31 144t111 83q-77 22 -109.5 80t-32.5 143v34q0 118 59.5 187.5t181.5 69.5q120 0 180.5 -70t60.5 -187v-34q0 -82 -32.5 -142t-108.5 -81q77 -22 109 -83t32 -144v-76q0 -117 -60 -189.5t-181 -72.5q-123 0 -182 72t-59 190zM123 255q0 -93 42.5 -146.5 t128.5 -53.5t128 53.5t43 146.5v80q0 187 -171 187t-171 -187v-80zM123 767q0 -182 171 -182t171 182v44q0 94 -43 144.5t-128 50.5q-87 0 -129 -50.5t-42 -144.5v-44z" />
<glyph unicode="9" horiz-adv-x="578" d="M55 673v128q0 60 13.5 109t42 85t72.5 56.5t105 20.5t105.5 -20.5t72.5 -56.5t42 -85t14 -109v-539q0 -59 -13 -109t-42 -85.5t-73 -56t-106 -20.5q-61 0 -105 19.5t-71.5 54.5t-41.5 84t-14 107v14h67v-17q0 -87 37.5 -142.5t125.5 -55.5q90 0 127.5 57t37.5 153v261 q-25 -59 -70.5 -85.5t-117.5 -26.5q-56 0 -95 19.5t-64.5 54t-37 82t-11.5 103.5zM124 677q0 -86 38 -143t126 -57t125.5 57t37.5 143v130q0 86 -37.5 142.5t-125.5 56.5t-126 -57t-38 -142v-130z" />
<glyph unicode=":" horiz-adv-x="189" d="M61 0v133h68v-133h-68zM61 577v134h68v-134h-68z" />
<glyph unicode=";" horiz-adv-x="202" d="M68 -115l30 115h-23v133h68v-127l-45 -121h-30zM75 577v134h68v-134h-68z" />
<glyph unicode="&#x3c;" horiz-adv-x="560" d="M55 505v51l445 203v-55l-377 -173l377 -175v-54z" />
<glyph unicode="=" horiz-adv-x="461" d="M58 434v51h347v-51h-347zM58 619v51h347v-51h-347z" />
<glyph unicode="&#x3e;" horiz-adv-x="560" d="M61 302v54l379 175l-379 173v55l445 -203v-51z" />
<glyph unicode="?" horiz-adv-x="549" d="M50 727v70q0 58 12 108t39.5 86.5t70 57.5t104.5 21t105 -20.5t69.5 -57t39 -85.5t12.5 -107q0 -59 -17 -105t-41 -85t-53 -73t-53 -71t-41 -78.5t-17 -95.5q0 -26 8 -56h-64q-7 30 -7 59q0 58 16 102t40 82t51.5 72t51.5 71t40 80.5t16 100.5q0 42 -7.5 79.5t-26 65 t-48.5 43t-75 15.5q-44 0 -75 -15.5t-49 -44t-26 -65.5t-8 -80v-74h-67zM221 0v132h67v-132h-67z" />
<glyph unicode="@" horiz-adv-x="1042" d="M52 434q0 130 31 252t97 215t167 149t244 56q108 0 184.5 -31t125 -88t71 -135.5t22.5 -174.5q0 -86 -17.5 -168.5t-50 -147t-81 -104.5t-110.5 -40q-52 0 -77 29.5t-28 76.5q-22 -55 -63 -86t-100 -29q-45 0 -76 19t-47.5 50.5t-21 74t0.5 88.5l15 150q5 46 19 86.5 t37.5 70t57 45.5t77.5 16q111 -3 138 -108l10 100h62l-45 -433q-3 -32 8.5 -61.5t49.5 -29.5q56 0 92.5 42t57.5 103.5t29.5 131t8.5 123.5q0 86 -21 155.5t-63.5 118.5t-109.5 74.5t-158 25.5q-126 0 -216 -50t-148 -135.5t-85 -197.5t-27 -236q0 -213 100 -329.5 t314 -116.5q76 0 148 19.5t136 68.5l-6 -64q-65 -44 -134.5 -62t-146.5 -18q-123 0 -211.5 35t-146.5 100t-85.5 159t-27.5 211zM385 375q3 -31 15 -54.5t34.5 -38t59.5 -14.5q35 0 60.5 13.5t44 37.5t28 55t12.5 66l17 147q3 32 -0.5 60.5t-16.5 50.5t-36.5 35t-57.5 13 q-69 0 -104 -47t-42 -117l-14 -142q-3 -34 0 -65z" />
<glyph unicode="A" horiz-adv-x="660" d="M45 0l233 1063h101l236 -1063h-70l-52 235h-331l-53 -235h-64zM172 295h310l-156 687z" />
<glyph unicode="B" horiz-adv-x="572" d="M61 0v1061h222q120 0 168.5 -57.5t48.5 -168.5v-60q0 -87 -29.5 -140t-110.5 -70q87 -17 123 -76.5t36 -150.5v-92q0 -116 -54 -181t-177 -65h-227zM130 64h158q88 0 125 47t37 136v96q0 102 -47 144t-141 42h-132v-465zM130 593h119q46 0 80.5 7.5t57 26t33.5 51.5 t11 83v68q0 83 -32 126t-117 43h-152v-405z" />
<glyph unicode="C" horiz-adv-x="566" d="M56 259v542q0 58 13 107.5t41 85t71 56t104 20.5t104 -20.5t71 -56t41 -85t13 -107.5v-87h-67v93q0 42 -8 78t-28 63.5t-50.5 42.5t-74.5 15q-43 0 -73.5 -15t-50 -42.5t-28 -63.5t-8.5 -78v-552q0 -43 8.5 -79.5t28 -62.5t50 -41.5t73.5 -15.5q44 0 74.5 15.5t50.5 41.5 t28 62.5t8 79.5v125h67v-121q0 -58 -13 -107t-41 -84.5t-71 -56t-104 -20.5t-104 20.5t-71 56t-41 84.5t-13 107z" />
<glyph unicode="D" horiz-adv-x="583" d="M61 0v1061h233q60 0 105 -19t74 -54t42.5 -83.5t13.5 -107.5v-534q0 -59 -13.5 -107.5t-42.5 -83t-74 -53.5t-105 -19h-233zM130 64h162q90 0 129 54t39 142v540q0 88 -40 143t-128 55h-162v-934z" />
<glyph unicode="E" horiz-adv-x="531" d="M61 0v1061h418v-63h-349v-428h290v-64h-290v-442h349v-64h-418z" />
<glyph unicode="F" horiz-adv-x="509" d="M61 0v1061h403v-63h-334v-454h275v-64h-275v-480h-69z" />
<glyph unicode="G" horiz-adv-x="569" d="M56 259v542q0 58 13 107.5t41 85t71 56t104 20.5t104 -20.5t71 -56t41 -85t13 -107.5v-78h-67v84q0 42 -8 78t-28 63.5t-50.5 42.5t-74.5 15q-43 0 -73.5 -15t-50 -42.5t-28 -63.5t-8.5 -78v-552q0 -43 8.5 -79.5t28 -62.5t50 -41.5t73.5 -15.5q44 0 74.5 15.5t50.5 41.5 t28 62.5t8 79.5v228h-141v64h208v-288q0 -58 -13 -107t-41 -84.5t-71 -56t-104 -20.5t-104 20.5t-71 56t-41 84.5t-13 107z" />
<glyph unicode="H" horiz-adv-x="592" d="M61 0v1061h69v-499h331v499h71v-1061h-71v499h-331v-499h-69z" />
<glyph unicode="I" horiz-adv-x="190" d="M61 0v1061h69v-1061h-69z" />
<glyph unicode="J" horiz-adv-x="383" d="M44 0v64q17 -2 32 -1l30 2q75 6 112.5 49.5t37.5 141.5v805h70v-801q0 -139 -57.5 -197.5t-154.5 -62.5h-34h-36z" />
<glyph unicode="K" horiz-adv-x="611" d="M61 0v1061h69v-561l346 561h72l-302 -494l322 -567h-72l-293 499l-73 -116v-383h-69z" />
<glyph unicode="L" horiz-adv-x="507" d="M61 0v1061h69v-997h334v-64h-403z" />
<glyph unicode="M" horiz-adv-x="765" d="M61 0v1061h100l222 -938l222 938h99v-1061h-66v943l-221 -942h-70l-224 939v-940h-62z" />
<glyph unicode="N" horiz-adv-x="592" d="M61 0v1061h91l318 -896v896h64v-1061h-78l-332 946v-946h-63z" />
<glyph unicode="O" d="M56 259v542q0 58 14 107.5t41.5 85t71.5 56t105 20.5t105.5 -20.5t73.5 -56t42.5 -85t13.5 -107.5v-542q0 -58 -13.5 -107t-42.5 -84.5t-73.5 -56t-105.5 -20.5t-105 20.5t-71.5 56t-41.5 84.5t-14 107zM126 255q0 -87 37 -143.5t125 -56.5t126.5 56.5t38.5 143.5v552 q0 86 -38.5 142.5t-126.5 56.5t-125 -57t-37 -142v-552z" />
<glyph unicode="P" horiz-adv-x="554" d="M61 0v1061h219q123 0 175.5 -70.5t52.5 -187.5v-115q0 -127 -59.5 -189t-186.5 -62h-132v-437h-69zM130 500h132q92 0 134 43.5t42 140.5v124q0 87 -34 138.5t-124 51.5h-150v-498z" />
<glyph unicode="Q" horiz-adv-x="617" d="M56 259v542q0 58 14 107.5t42.5 85t72.5 56t104 20.5q61 0 105 -20.5t73 -56t42.5 -85t13.5 -107.5v-542q0 -55 -12 -101.5t-38 -82.5q13 -24 34 -33t49 -9h17v-62h-18q-88 0 -126 62q-26 -20 -60.5 -31t-79.5 -11q-60 0 -104 20.5t-72.5 56t-42.5 84.5t-14 107zM126 255 q0 -87 37.5 -143.5t125.5 -56.5t126 56.5t38 143.5v552q0 86 -38 142.5t-126 56.5t-125.5 -57t-37.5 -142v-552z" />
<glyph unicode="R" horiz-adv-x="584" d="M61 0v1061h221q121 0 174 -63.5t53 -176.5v-92q0 -185 -153 -220q82 -18 117.5 -74t35.5 -143v-165q0 -33 4.5 -67t21.5 -60h-73q-13 24 -17.5 54t-4.5 73v167q0 53 -14 88t-40.5 55t-63 28.5t-81.5 8.5h-111v-474h-69zM130 538h113q46 0 82.5 8t61.5 27.5t39 54t14 88.5 v99q0 87 -36.5 135t-123.5 48h-150v-460z" />
<glyph unicode="S" horiz-adv-x="560" d="M52 256v55h66v-59q0 -86 36.5 -141t124.5 -55t124.5 55t36.5 141q0 63 -28.5 108.5t-71.5 82.5t-92.5 70.5t-92.5 74t-71 92.5t-28 127q0 119 54 190.5t172 72.5q61 0 103.5 -19.5t69.5 -55.5t40 -84.5t13 -106.5v-22h-67v28q0 42 -8.5 77.5t-27.5 62t-49 41.5t-73 15 q-86 0 -121.5 -55.5t-35.5 -139.5q0 -65 28 -110.5t71 -83t92.5 -71.5t92.5 -74t71 -91.5t28 -124.5q0 -58 -13 -106.5t-40.5 -84t-71 -55t-104.5 -19.5q-60 0 -103.5 19.5t-71.5 55t-40.5 84t-12.5 106.5z" />
<glyph unicode="T" horiz-adv-x="558" d="M27 998v63h502v-63h-215v-998h-70v998h-217z" />
<glyph unicode="U" horiz-adv-x="569" d="M58 259v802h69v-805q0 -42 8.5 -79.5t27.5 -64.5t49.5 -42t73.5 -15q44 0 74.5 15t49.5 42t27 64.5t8 79.5v805h66v-802q0 -58 -12.5 -106.5t-39.5 -84.5t-70 -56.5t-104 -20.5t-104 20.5t-70 56.5t-40 84.5t-13 106.5z" />
<glyph unicode="V" horiz-adv-x="657" d="M45 1061h72l215 -980l215 980h65l-230 -1061h-103z" />
<glyph unicode="W" horiz-adv-x="913" d="M47 1061h68l160 -967l154 962h74l149 -959l152 964h63l-170 -1061h-91l-142 869l-149 -869h-97z" />
<glyph unicode="X" horiz-adv-x="666" d="M47 0l239 550l-222 511h72l201 -456l201 456h67l-223 -511l238 -550h-75l-215 494l-215 -494h-68z" />
<glyph unicode="Y" horiz-adv-x="628" d="M41 1061h73l203 -558l202 558h69l-239 -653v-408h-70v408z" />
<glyph unicode="Z" horiz-adv-x="587" d="M52 0v64l410 934h-391v63h464v-65l-411 -932h405v-64h-477z" />
<glyph unicode="[" horiz-adv-x="351" d="M65 0v1063h237v-60h-167v-944h167v-59h-237z" />
<glyph unicode="\" horiz-adv-x="561" d="M41 1061h62l419 -1061h-62z" />
<glyph unicode="]" horiz-adv-x="351" d="M52 0v59h166v944h-166v60h236v-1063h-236z" />
<glyph unicode="^" horiz-adv-x="619" d="M50 593l233 468h54l233 -468h-59l-202 403l-200 -403h-59z" />
<glyph unicode="_" horiz-adv-x="777" d="M39 -15h690v-53h-690v53z" />
<glyph unicode="`" horiz-adv-x="298" d="M62 1285h76l108 -144h-55z" />
<glyph unicode="a" horiz-adv-x="660" d="M45 0l233 1063h101l236 -1063h-70l-52 235h-331l-53 -235h-64zM172 295h310l-156 687z" />
<glyph unicode="b" horiz-adv-x="572" d="M61 0v1061h222q120 0 168.5 -57.5t48.5 -168.5v-60q0 -87 -29.5 -140t-110.5 -70q87 -17 123 -76.5t36 -150.5v-92q0 -116 -54 -181t-177 -65h-227zM130 64h158q88 0 125 47t37 136v96q0 102 -47 144t-141 42h-132v-465zM130 593h119q46 0 80.5 7.5t57 26t33.5 51.5 t11 83v68q0 83 -32 126t-117 43h-152v-405z" />
<glyph unicode="c" horiz-adv-x="566" d="M56 259v542q0 58 13 107.5t41 85t71 56t104 20.5t104 -20.5t71 -56t41 -85t13 -107.5v-87h-67v93q0 42 -8 78t-28 63.5t-50.5 42.5t-74.5 15q-43 0 -73.5 -15t-50 -42.5t-28 -63.5t-8.5 -78v-552q0 -43 8.5 -79.5t28 -62.5t50 -41.5t73.5 -15.5q44 0 74.5 15.5t50.5 41.5 t28 62.5t8 79.5v125h67v-121q0 -58 -13 -107t-41 -84.5t-71 -56t-104 -20.5t-104 20.5t-71 56t-41 84.5t-13 107z" />
<glyph unicode="d" horiz-adv-x="583" d="M61 0v1061h233q60 0 105 -19t74 -54t42.5 -83.5t13.5 -107.5v-534q0 -59 -13.5 -107.5t-42.5 -83t-74 -53.5t-105 -19h-233zM130 64h162q90 0 129 54t39 142v540q0 88 -40 143t-128 55h-162v-934z" />
<glyph unicode="e" horiz-adv-x="531" d="M61 0v1061h418v-63h-349v-428h290v-64h-290v-442h349v-64h-418z" />
<glyph unicode="f" horiz-adv-x="509" d="M61 0v1061h403v-63h-334v-454h275v-64h-275v-480h-69z" />
<glyph unicode="g" horiz-adv-x="569" d="M56 259v542q0 58 13 107.5t41 85t71 56t104 20.5t104 -20.5t71 -56t41 -85t13 -107.5v-78h-67v84q0 42 -8 78t-28 63.5t-50.5 42.5t-74.5 15q-43 0 -73.5 -15t-50 -42.5t-28 -63.5t-8.5 -78v-552q0 -43 8.5 -79.5t28 -62.5t50 -41.5t73.5 -15.5q44 0 74.5 15.5t50.5 41.5 t28 62.5t8 79.5v228h-141v64h208v-288q0 -58 -13 -107t-41 -84.5t-71 -56t-104 -20.5t-104 20.5t-71 56t-41 84.5t-13 107z" />
<glyph unicode="h" horiz-adv-x="592" d="M61 0v1061h69v-499h331v499h71v-1061h-71v499h-331v-499h-69z" />
<glyph unicode="i" horiz-adv-x="190" d="M61 0v1061h69v-1061h-69z" />
<glyph unicode="j" horiz-adv-x="383" d="M44 0v64q17 -2 32 -1l30 2q75 6 112.5 49.5t37.5 141.5v805h70v-801q0 -139 -57.5 -197.5t-154.5 -62.5h-34h-36z" />
<glyph unicode="k" horiz-adv-x="611" d="M61 0v1061h69v-561l346 561h72l-302 -494l322 -567h-72l-293 499l-73 -116v-383h-69z" />
<glyph unicode="l" horiz-adv-x="507" d="M61 0v1061h69v-997h334v-64h-403z" />
<glyph unicode="m" horiz-adv-x="765" d="M61 0v1061h100l222 -938l222 938h99v-1061h-66v943l-221 -942h-70l-224 939v-940h-62z" />
<glyph unicode="n" horiz-adv-x="592" d="M61 0v1061h91l318 -896v896h64v-1061h-78l-332 946v-946h-63z" />
<glyph unicode="o" d="M56 259v542q0 58 14 107.5t41.5 85t71.5 56t105 20.5t105.5 -20.5t73.5 -56t42.5 -85t13.5 -107.5v-542q0 -58 -13.5 -107t-42.5 -84.5t-73.5 -56t-105.5 -20.5t-105 20.5t-71.5 56t-41.5 84.5t-14 107zM126 255q0 -87 37 -143.5t125 -56.5t126.5 56.5t38.5 143.5v552 q0 86 -38.5 142.5t-126.5 56.5t-125 -57t-37 -142v-552z" />
<glyph unicode="p" horiz-adv-x="551" d="M61 0v1061h219q123 0 175.5 -70.5t52.5 -187.5v-115q0 -127 -59.5 -189t-186.5 -62h-132v-437h-69zM130 500h132q92 0 134 43.5t42 140.5v124q0 87 -34 138.5t-124 51.5h-150v-498z" />
<glyph unicode="q" horiz-adv-x="589" d="M56 259v542q0 58 14 107.5t42.5 85t72.5 56t104 20.5q61 0 105 -20.5t73 -56t42.5 -85t13.5 -107.5v-542q0 -55 -12 -101.5t-38 -82.5q13 -24 34 -33t49 -9h17v-62h-18q-88 0 -126 62q-26 -20 -60.5 -31t-79.5 -11q-60 0 -104 20.5t-72.5 56t-42.5 84.5t-14 107zM126 255 q0 -87 37.5 -143.5t125.5 -56.5t126 56.5t38 143.5v552q0 86 -38 142.5t-126 56.5t-125.5 -57t-37.5 -142v-552z" />
<glyph unicode="r" horiz-adv-x="584" d="M61 0v1061h221q121 0 174 -63.5t53 -176.5v-92q0 -185 -153 -220q82 -18 117.5 -74t35.5 -143v-165q0 -33 4.5 -67t21.5 -60h-73q-13 24 -17.5 54t-4.5 73v167q0 53 -14 88t-40.5 55t-63 28.5t-81.5 8.5h-111v-474h-69zM130 538h113q46 0 82.5 8t61.5 27.5t39 54t14 88.5 v99q0 87 -36.5 135t-123.5 48h-150v-460z" />
<glyph unicode="s" horiz-adv-x="560" d="M52 256v55h66v-59q0 -86 36.5 -141t124.5 -55t124.5 55t36.5 141q0 63 -28.5 108.5t-71.5 82.5t-92.5 70.5t-92.5 74t-71 92.5t-28 127q0 119 54 190.5t172 72.5q61 0 103.5 -19.5t69.5 -55.5t40 -84.5t13 -106.5v-22h-67v28q0 42 -8.5 77.5t-27.5 62t-49 41.5t-73 15 q-86 0 -121.5 -55.5t-35.5 -139.5q0 -65 28 -110.5t71 -83t92.5 -71.5t92.5 -74t71 -91.5t28 -124.5q0 -58 -13 -106.5t-40.5 -84t-71 -55t-104.5 -19.5q-60 0 -103.5 19.5t-71.5 55t-40.5 84t-12.5 106.5z" />
<glyph unicode="t" horiz-adv-x="551" d="M24 998v63h502v-63h-217v-998h-69v998h-216z" />
<glyph unicode="u" horiz-adv-x="569" d="M58 259v802h69v-805q0 -42 8.5 -79.5t27.5 -64.5t49.5 -42t73.5 -15q44 0 74.5 15t49.5 42t27 64.5t8 79.5v805h66v-802q0 -58 -12.5 -106.5t-39.5 -84.5t-70 -56.5t-104 -20.5t-104 20.5t-70 56.5t-40 84.5t-13 106.5z" />
<glyph unicode="v" horiz-adv-x="657" d="M45 1061h72l215 -980l215 980h65l-230 -1061h-103z" />
<glyph unicode="w" horiz-adv-x="913" d="M47 1061h68l160 -967l154 962h74l149 -959l152 964h63l-170 -1061h-91l-142 869l-149 -869h-97z" />
<glyph unicode="x" horiz-adv-x="666" d="M47 0l239 550l-222 511h72l201 -456l201 456h67l-223 -511l238 -550h-75l-215 494l-215 -494h-68z" />
<glyph unicode="y" horiz-adv-x="628" d="M41 1061h73l203 -558l202 558h69l-239 -653v-408h-70v408z" />
<glyph unicode="z" horiz-adv-x="587" d="M52 0v64l410 934h-391v63h464v-65l-411 -932h405v-64h-477z" />
<glyph unicode="{" horiz-adv-x="387" d="M45 499v63q32 5 50.5 15.5t28 26.5t12.5 38.5t5 53.5l11 209q4 70 33 114t100 44h56v-60h-33q-56 0 -73 -34.5t-20 -90.5l-9 -191q-1 -28 -5 -52.5t-13.5 -44.5t-29 -35.5t-51.5 -23.5q32 -9 51.5 -24.5t29 -36t13 -44.5t5.5 -52l9 -189q3 -58 20 -92t73 -34h33v-59h-56 q-71 0 -100 43.5t-33 114.5l-11 208q-2 30 -5 52.5t-12.5 39t-28 26.5t-50.5 15z" />
<glyph unicode="|" horiz-adv-x="378" d="M164 -35v1132h57v-1132h-57z" />
<glyph unicode="}" horiz-adv-x="387" d="M47 0v59h35q55 0 71 34t19 92l12 189q1 28 4 52t13.5 44.5t29.5 36t51 24.5q-32 8 -51 23.5t-29.5 35.5t-13.5 44.5t-4 52.5l-12 191q-3 57 -19.5 91t-70.5 34h-35v60h56q71 0 100 -44t33 -114l11 -209q2 -31 5.5 -53.5t13.5 -38.5t28 -26.5t50 -15.5v-63q-32 -5 -50 -15 t-28 -26.5t-13.5 -39t-5.5 -52.5l-11 -208q-4 -71 -32.5 -114.5t-100.5 -43.5h-56z" />
<glyph unicode="~" horiz-adv-x="601" d="M42 499q33 53 67.5 78.5t78.5 25.5q33 2 64 -13.5t60 -33t57 -32.5t55 -13q32 1 53.5 24t44.5 58l36 -35q-30 -49 -61.5 -75t-70.5 -29q-34 -1 -64 14t-58.5 33t-57.5 32.5t-60 14.5q-34 0 -58.5 -21t-49.5 -60z" />
<glyph unicode="&#xa2;" horiz-adv-x="571" d="M59 330v402q0 53 11 99.5t35 82t61 57t90 27.5v71h59v-71q54 -5 91.5 -25.5t62 -54.5t35.5 -79.5t11 -99.5v-48h-67v52q0 87 -36 139.5t-124 52.5q-44 0 -73.5 -15t-49 -41.5t-28 -63t-8.5 -79.5v-409q0 -42 8.5 -78.5t28 -63.5t49 -42.5t73.5 -15.5q88 0 124 56.5 t36 140.5v84h67v-79q0 -55 -11 -101t-35.5 -81t-62 -56t-91.5 -26v-72h-59v72q-53 5 -90 27t-61 57.5t-35 82t-11 98.5z" />
<glyph unicode="&#xa3;" horiz-adv-x="584" d="M55 0v62q32 25 62 56.5t51 70t32 82.5t4 93h-130v56h120q-15 48 -35.5 88t-39.5 82t-32.5 92t-13.5 118q0 58 12 107t39.5 85.5t70.5 57t105 20.5q61 0 103 -21t69 -58.5t39 -87.5t12 -106v-65h-66v68q0 42 -8 79.5t-26 65.5t-47.5 44.5t-73.5 16.5q-45 0 -76 -15.5 t-49 -43t-26 -64.5t-8 -80q0 -68 13 -118t32.5 -92t40 -82.5t33.5 -90.5h223v-56h-217q4 -33 0.5 -67t-18 -70t-40.5 -76t-67 -87h383v-64h-471z" />
<glyph unicode="&#xa5;" horiz-adv-x="652" d="M42 1061h75l212 -567l213 567h67l-243 -646h160v-39h-166v-111h166v-39h-166v-226h-69v226h-164v39h164v111h-164v39h158z" />
<glyph unicode="&#xa8;" horiz-adv-x="287" d="M103 1129v129h82v-129h-82z" />
<glyph unicode="&#xa9;" horiz-adv-x="1132" d="M50 531q0 114 38.5 210.5t107.5 167.5t163.5 111.5t207.5 40.5q112 0 207 -40.5t163.5 -111.5t107 -168t38.5 -210q0 -114 -38.5 -211t-107 -168t-163.5 -111.5t-207 -40.5q-113 0 -207.5 40.5t-163.5 111.5t-107.5 168t-38.5 211zM98 531q0 -103 35 -192t97 -153.5 t148 -101.5t189 -37q101 0 187.5 37t148 101.5t96.5 153.5t35 192q0 102 -35 191t-96.5 153.5t-148 101.5t-187.5 37q-103 0 -189 -37t-148 -101.5t-97 -153.5t-35 -191zM400 383v293q0 80 38 133t123 53q84 0 121 -52t37 -134v-37h-49v40q0 58 -24 97t-85 39 q-59 0 -84.5 -39.5t-25.5 -96.5v-297q0 -58 25.5 -97t84.5 -39q61 0 85 39t24 97v56h49v-55q0 -80 -37.5 -133t-120.5 -53q-85 0 -123 53t-38 133z" />
<glyph unicode="&#xab;" horiz-adv-x="431" d="M47 532l100 372h64l-99 -372l99 -379h-64zM223 532l98 372h64l-99 -372l99 -379h-64z" />
<glyph unicode="&#xad;" horiz-adv-x="393" d="M58 499v63h279v-63h-279z" />
<glyph unicode="&#xae;" horiz-adv-x="1132" d="M50 531q0 114 38.5 210.5t107.5 167.5t163.5 111.5t207.5 40.5q112 0 207 -40.5t163.5 -111.5t107 -168t38.5 -210q0 -114 -38.5 -211t-107 -168t-163.5 -111.5t-207 -40.5q-113 0 -207.5 40.5t-163.5 111.5t-107.5 168t-38.5 211zM98 531q0 -103 35 -192t97 -153.5 t148 -101.5t189 -37q101 0 187.5 37t148 101.5t96.5 153.5t35 192q0 102 -35 191t-96.5 153.5t-148 101.5t-187.5 37q-103 0 -189 -37t-148 -101.5t-97 -153.5t-35 -191zM417 206v649h156q85 0 122 -44t37 -124v-20q0 -58 -22 -97t-75 -56q53 -17 75 -55t22 -95v-70 q0 -22 3 -46.5t15 -41.5h-53q-10 19 -13 39t-3 50v71q0 74 -39 98t-101 24h-73v-282h-51zM468 536h87q64 0 95 27t31 95v23q0 60 -24.5 93t-86.5 33h-102v-271z" />
<glyph unicode="&#xb4;" horiz-adv-x="298" d="M53 1141l109 144h71l-127 -144h-53z" />
<glyph unicode="&#xb8;" horiz-adv-x="373" d="M53 -129h50v-7q0 -33 28 -46t55 -15q31 0 57.5 14t26.5 48q0 37 -26.5 47.5t-59.5 10.5h-12v84h36v-66q49 -2 81 -17t32 -60q0 -28 -11.5 -45t-30.5 -28t-43 -14.5t-50 -3.5q-24 0 -48 4.5t-43.5 15t-30.5 27t-11 42.5v9z" />
<glyph unicode="&#xbb;" horiz-adv-x="431" d="M47 153l99 379l-99 372h64l100 -372l-100 -379h-64zM223 153l97 379l-97 372h63l99 -372l-99 -379h-63z" />
<glyph unicode="&#xc0;" horiz-adv-x="660" d="M45 0l233 1063h101l236 -1063h-70l-52 235h-331l-53 -235h-64zM172 295h310l-156 687zM204 1261h76l108 -144h-54z" />
<glyph unicode="&#xc1;" horiz-adv-x="660" d="M45 0l233 1063h101l236 -1063h-70l-52 235h-331l-53 -235h-64zM172 295h310l-156 687zM259 1118l108 144h73l-128 -144h-53z" />
<glyph unicode="&#xc2;" horiz-adv-x="660" d="M45 0l233 1063h101l236 -1063h-70l-52 235h-331l-53 -235h-64zM169 1117l128 137h60l129 -137h-66l-93 95l-92 -95h-66zM172 295h310l-156 687z" />
<glyph unicode="&#xc3;" horiz-adv-x="660" d="M45 0l233 1063h101l236 -1063h-70l-52 235h-331l-53 -235h-64zM162 1161q32 70 96 73q21 0 39 -8.5t35.5 -18.5t33.5 -17.5t33 -7.5q20 1 32.5 13.5t22.5 33.5l39 -26q-15 -33 -36.5 -52t-51.5 -19q-22 -1 -39 7t-34 18t-33.5 17.5t-35.5 7.5q-39 0 -63 -45zM172 295h310 l-156 687z" />
<glyph unicode="&#xc4;" horiz-adv-x="660" d="M45 0l233 1063h101l236 -1063h-70l-52 235h-331l-53 -235h-64zM172 295h310l-156 687zM223 1117v127h62v-127h-62zM370 1117v127h62v-127h-62z" />
<glyph unicode="&#xc5;" horiz-adv-x="660" d="M45 0l233 1063h101l236 -1063h-70l-52 235h-331l-53 -235h-64zM172 295h310l-156 687zM226 1222q0 42 28.5 71t72.5 29q42 0 72 -29t30 -71q0 -44 -29.5 -73t-72.5 -29q-44 0 -72.5 28.5t-28.5 73.5zM262 1222q0 -29 19 -46.5t46 -17.5q26 0 45.5 17.5t19.5 46.5 q0 27 -19.5 44.5t-45.5 17.5q-27 0 -46 -17.5t-19 -44.5z" />
<glyph unicode="&#xc6;" horiz-adv-x="892" d="M41 0l377 1061h420v-63h-309v-428h256v-64h-256v-442h309v-64h-378v238h-266l-87 -238h-66zM212 300h248v675z" />
<glyph unicode="&#xc7;" horiz-adv-x="566" d="M56 259v542q0 58 13 107.5t41 85t71 56t104 20.5t104 -20.5t71 -56t41 -85t13 -107.5v-87h-67v93q0 42 -8 78t-28 63.5t-50.5 42.5t-74.5 15q-43 0 -73.5 -15t-50 -42.5t-28 -63.5t-8.5 -78v-552q0 -43 8.5 -79.5t28 -62.5t50 -41.5t73.5 -15.5q44 0 74.5 15.5t50.5 41.5 t28 62.5t8 79.5v125h67v-121q0 -55 -12 -102.5t-38 -84t-66.5 -57.5t-95.5 -24v-43q53 -1 83 -23t30 -61q0 -47 -35.5 -73t-99.5 -24q-63 0 -98 24.5t-35 70.5v9h48v-7q0 -26 23 -41t62 -18q41 0 64 15.5t23 44.5q0 26 -23.5 41.5t-67.5 15.5h-11v71q-56 3 -95.5 24 t-64 56.5t-37 83t-12.5 102.5z" />
<glyph unicode="&#xc8;" horiz-adv-x="531" d="M61 0v1061h418v-63h-349v-428h290v-64h-290v-442h349v-64h-418zM156 1276h76l108 -144h-57z" />
<glyph unicode="&#xc9;" horiz-adv-x="531" d="M61 0v1061h418v-63h-349v-428h290v-64h-290v-442h349v-64h-418zM214 1122l107 143h73l-128 -143h-52z" />
<glyph unicode="&#xca;" horiz-adv-x="531" d="M61 0v1061h418v-63h-349v-428h290v-64h-290v-442h349v-64h-418zM111 1123l127 136h60l130 -136h-68l-92 97l-92 -97h-65z" />
<glyph unicode="&#xcb;" horiz-adv-x="531" d="M61 0v1061h418v-63h-349v-428h290v-64h-290v-442h349v-64h-418zM165 1122v129h61v-129h-61zM311 1122v129h62v-129h-62z" />
<glyph unicode="&#xcc;" horiz-adv-x="190" d="M-36 1265h74l108 -143h-55zM61 0v1061h69v-1061h-69z" />
<glyph unicode="&#xcd;" horiz-adv-x="190" d="M38 1123l108 144h72l-127 -144h-53zM61 0v1061h69v-1061h-69z" />
<glyph unicode="&#xce;" horiz-adv-x="190" d="M-62 1122l127 136h61l127 -136h-65l-93 97l-92 -97h-65zM61 0v1061h69v-1061h-69z" />
<glyph unicode="&#xcf;" horiz-adv-x="190" d="M-9 1123v128h62v-128h-62zM61 0v1061h69v-1061h-69zM138 1123v128h62v-128h-62z" />
<glyph unicode="&#xd0;" horiz-adv-x="583" d="M-9 502v57h70v502h233q60 0 105 -19t74 -54t42.5 -83.5t13.5 -107.5v-534q0 -59 -13.5 -107.5t-42.5 -83t-74 -53.5t-105 -19h-233v502h-70zM130 64h162q90 0 129 54t39 142v540q0 88 -40 143t-128 55h-162v-439h135v-57h-135v-438z" />
<glyph unicode="&#xd1;" horiz-adv-x="592" d="M61 0v1061h91l318 -896v896h64v-1061h-78l-332 946v-946h-63zM133 1173q29 69 94 72q22 0 40 -7t35.5 -17t33.5 -18.5t33 -6.5q19 0 32.5 13t24.5 32l36 -26q-28 -68 -88 -71q-21 0 -38.5 8t-34 17.5t-33 17t-35.5 7.5q-38 0 -64 -46z" />
<glyph unicode="&#xd2;" d="M56 259v542q0 58 14 107.5t41.5 85t71.5 56t105 20.5t105.5 -20.5t73.5 -56t42.5 -85t13.5 -107.5v-542q0 -58 -13.5 -107t-42.5 -84.5t-73.5 -56t-105.5 -20.5t-105 20.5t-71.5 56t-41.5 84.5t-14 107zM126 255q0 -87 37 -143.5t125 -56.5t126.5 56.5t38.5 143.5v552 q0 86 -38.5 142.5t-126.5 56.5t-125 -57t-37 -142v-552zM164 1276h76l107 -144h-56z" />
<glyph unicode="&#xd3;" d="M56 259v542q0 58 14 107.5t41.5 85t71.5 56t105 20.5t105.5 -20.5t73.5 -56t42.5 -85t13.5 -107.5v-542q0 -58 -13.5 -107t-42.5 -84.5t-73.5 -56t-105.5 -20.5t-105 20.5t-71.5 56t-41.5 84.5t-14 107zM126 255q0 -87 37 -143.5t125 -56.5t126.5 56.5t38.5 143.5v552 q0 86 -38.5 142.5t-126.5 56.5t-125 -57t-37 -142v-552zM230 1132l108 144h73l-128 -144h-53z" />
<glyph unicode="&#xd4;" d="M56 259v542q0 58 14 107.5t41.5 85t71.5 56t105 20.5t105.5 -20.5t73.5 -56t42.5 -85t13.5 -107.5v-542q0 -58 -13.5 -107t-42.5 -84.5t-73.5 -56t-105.5 -20.5t-105 20.5t-71.5 56t-41.5 84.5t-14 107zM126 255q0 -87 37 -143.5t125 -56.5t126.5 56.5t38.5 143.5v552 q0 86 -38.5 142.5t-126.5 56.5t-125 -57t-37 -142v-552zM130 1129l128 136h60l127 -136h-65l-92 97l-93 -97h-65z" />
<glyph unicode="&#xd5;" d="M56 259v542q0 58 14 107.5t41.5 85t71.5 56t105 20.5t105.5 -20.5t73.5 -56t42.5 -85t13.5 -107.5v-542q0 -58 -13.5 -107t-42.5 -84.5t-73.5 -56t-105.5 -20.5t-105 20.5t-71.5 56t-41.5 84.5t-14 107zM126 255q0 -87 37 -143.5t125 -56.5t126.5 56.5t38.5 143.5v552 q0 86 -38.5 142.5t-126.5 56.5t-125 -57t-37 -142v-552zM129 1170q33 71 95 71q22 0 40 -7.5t35.5 -17.5t33.5 -17.5t33 -7.5q20 2 33 14t22 32l39 -25q-14 -33 -36 -52t-53 -20q-21 0 -38.5 7.5t-34 17t-33 18t-35.5 8.5q-41 0 -64 -47z" />
<glyph unicode="&#xd6;" d="M56 259v542q0 58 14 107.5t41.5 85t71.5 56t105 20.5t105.5 -20.5t73.5 -56t42.5 -85t13.5 -107.5v-542q0 -58 -13.5 -107t-42.5 -84.5t-73.5 -56t-105.5 -20.5t-105 20.5t-71.5 56t-41.5 84.5t-14 107zM126 255q0 -87 37 -143.5t125 -56.5t126.5 56.5t38.5 143.5v552 q0 86 -38.5 142.5t-126.5 56.5t-125 -57t-37 -142v-552zM184 1129v129h62v-129h-62zM330 1129v129h62v-129h-62z" />
<glyph unicode="&#xd8;" d="M56 259v542q0 58 14 107.5t41.5 85t71.5 56t105 20.5q55 0 95 -16t68 -45l29 74l34 -11l-35 -94q23 -35 33.5 -79t10.5 -98v-542q0 -58 -13.5 -107t-42.5 -84.5t-73.5 -56t-105.5 -20.5q-53 0 -94 16t-68 45l-31 -78l-34 13l37 100q-42 66 -42 172zM126 255q0 -22 2 -41 t5 -36l291 759q-20 32 -53 50.5t-83 18.5q-88 0 -125 -57t-37 -142v-552zM153 126q20 -34 52.5 -52.5t82.5 -18.5q88 0 126.5 56.5t38.5 143.5v552q0 42 -9 81z" />
<glyph unicode="&#xd9;" horiz-adv-x="569" d="M58 259v802h69v-805q0 -42 8.5 -79.5t27.5 -64.5t49.5 -42t73.5 -15q44 0 74.5 15t49.5 42t27 64.5t8 79.5v805h66v-802q0 -58 -12.5 -106.5t-39.5 -84.5t-70 -56.5t-104 -20.5t-104 20.5t-70 56.5t-40 84.5t-13 106.5zM159 1267h76l108 -144h-57z" />
<glyph unicode="&#xda;" horiz-adv-x="569" d="M58 259v802h69v-805q0 -42 8.5 -79.5t27.5 -64.5t49.5 -42t73.5 -15q44 0 74.5 15t49.5 42t27 64.5t8 79.5v805h66v-802q0 -58 -12.5 -106.5t-39.5 -84.5t-70 -56.5t-104 -20.5t-104 20.5t-70 56.5t-40 84.5t-13 106.5zM236 1132l108 144h73l-128 -144h-53z" />
<glyph unicode="&#xdb;" horiz-adv-x="569" d="M58 259v802h69v-805q0 -42 8.5 -79.5t27.5 -64.5t49.5 -42t73.5 -15q44 0 74.5 15t49.5 42t27 64.5t8 79.5v805h66v-802q0 -58 -12.5 -106.5t-39.5 -84.5t-70 -56.5t-104 -20.5t-104 20.5t-70 56.5t-40 84.5t-13 106.5zM129 1129l127 136h61l128 -136h-66l-93 97l-92 -97 h-65z" />
<glyph unicode="&#xdc;" horiz-adv-x="569" d="M58 259v802h69v-805q0 -42 8.5 -79.5t27.5 -64.5t49.5 -42t73.5 -15q44 0 74.5 15t49.5 42t27 64.5t8 79.5v805h66v-802q0 -58 -12.5 -106.5t-39.5 -84.5t-70 -56.5t-104 -20.5t-104 20.5t-70 56.5t-40 84.5t-13 106.5zM181 1126v129h62v-129h-62zM327 1126v129h62v-129 h-62z" />
<glyph unicode="&#xdd;" horiz-adv-x="628" d="M41 1061h73l203 -558l202 558h69l-239 -653v-408h-70v408zM265 1122l109 143h71l-127 -143h-53z" />
<glyph unicode="&#xde;" horiz-adv-x="571" d="M61 0v1061h69v-185h150q123 0 175.5 -70.5t52.5 -186.5v-116q0 -127 -59.5 -189t-186.5 -62h-132v-252h-69zM130 315h132q92 0 134 43.5t42 140.5v123q0 88 -34 138.5t-124 50.5h-150v-496z" />
<glyph unicode="&#xdf;" horiz-adv-x="1078" d="M47 256v55h67v-59q0 -86 36 -141t125 -55q86 0 123 54.5t37 141.5q0 63 -28 108.5t-71.5 82.5t-92.5 70.5t-92.5 74t-71 92.5t-27.5 127q0 119 53.5 190.5t172.5 72.5q60 0 102.5 -19.5t69.5 -55.5t40 -84.5t13 -106.5v-22h-66v28q0 42 -8.5 77.5t-27.5 62t-49.5 41.5 t-72.5 15q-87 0 -122.5 -55.5t-35.5 -139.5q0 -65 28.5 -110.5t71 -83t92 -71.5t92.5 -74t71.5 -91.5t28.5 -124.5q0 -58 -13 -106.5t-41 -84t-71 -55t-104 -19.5t-104 19.5t-71 55t-41 84t-13 106.5zM573 256v55h66v-59q0 -86 37 -141t124 -55q88 0 124.5 55t36.5 141 q0 63 -28 108.5t-71.5 82.5t-92.5 70.5t-92.5 74t-71.5 92.5t-28 127q0 119 53.5 190.5t172.5 72.5q61 0 103.5 -19.5t69.5 -55.5t40 -84.5t13 -106.5v-22h-67v28q0 42 -8 77.5t-27 62t-49.5 41.5t-73.5 15q-86 0 -121.5 -55.5t-35.5 -139.5q0 -65 28 -110.5t71.5 -83 t92.5 -71.5t92.5 -74t71.5 -91.5t28 -124.5q0 -58 -13 -106.5t-41 -84t-71.5 -55t-104.5 -19.5q-60 0 -103 19.5t-71 55t-41 84t-13 106.5z" />
<glyph unicode="&#xe0;" horiz-adv-x="660" d="M45 0l233 1063h101l236 -1063h-70l-52 235h-331l-53 -235h-64zM172 295h310l-156 687zM204 1261h76l108 -144h-54z" />
<glyph unicode="&#xe1;" horiz-adv-x="660" d="M45 0l233 1063h101l236 -1063h-70l-52 235h-331l-53 -235h-64zM172 295h310l-156 687zM259 1118l108 144h73l-128 -144h-53z" />
<glyph unicode="&#xe2;" horiz-adv-x="660" d="M45 0l233 1063h101l236 -1063h-70l-52 235h-331l-53 -235h-64zM169 1117l128 137h60l129 -137h-66l-93 95l-92 -95h-66zM172 295h310l-156 687z" />
<glyph unicode="&#xe3;" horiz-adv-x="660" d="M45 0l233 1063h101l236 -1063h-70l-52 235h-331l-53 -235h-64zM162 1161q32 70 96 73q21 0 39 -8.5t35.5 -18.5t33.5 -17.5t33 -7.5q20 1 32.5 13.5t22.5 33.5l39 -26q-15 -33 -36.5 -52t-51.5 -19q-22 -1 -39 7t-34 18t-33.5 17.5t-35.5 7.5q-39 0 -63 -45zM172 295h310 l-156 687z" />
<glyph unicode="&#xe4;" horiz-adv-x="660" d="M45 0l233 1063h101l236 -1063h-70l-52 235h-331l-53 -235h-64zM172 295h310l-156 687zM223 1117v127h62v-127h-62zM370 1117v127h62v-127h-62z" />
<glyph unicode="&#xe5;" horiz-adv-x="660" d="M45 0l233 1063h101l236 -1063h-70l-52 235h-331l-53 -235h-64zM172 295h310l-156 687zM226 1222q0 42 28.5 71t72.5 29q42 0 72 -29t30 -71q0 -44 -29.5 -73t-72.5 -29q-44 0 -72.5 28.5t-28.5 73.5zM262 1222q0 -29 19 -46.5t46 -17.5q26 0 45.5 17.5t19.5 46.5 q0 27 -19.5 44.5t-45.5 17.5q-27 0 -46 -17.5t-19 -44.5z" />
<glyph unicode="&#xe6;" horiz-adv-x="892" d="M41 0l377 1061h420v-63h-309v-428h256v-64h-256v-442h309v-64h-378v238h-266l-87 -238h-66zM212 300h248v675z" />
<glyph unicode="&#xe7;" horiz-adv-x="566" d="M56 259v542q0 58 13 107.5t41 85t71 56t104 20.5t104 -20.5t71 -56t41 -85t13 -107.5v-87h-67v93q0 42 -8 78t-28 63.5t-50.5 42.5t-74.5 15q-43 0 -73.5 -15t-50 -42.5t-28 -63.5t-8.5 -78v-552q0 -43 8.5 -79.5t28 -62.5t50 -41.5t73.5 -15.5q44 0 74.5 15.5t50.5 41.5 t28 62.5t8 79.5v125h67v-121q0 -55 -12 -102.5t-38 -84t-66.5 -57.5t-95.5 -24v-43q53 -1 83 -23t30 -61q0 -47 -35.5 -73t-99.5 -24q-63 0 -98 24.5t-35 70.5v9h48v-7q0 -26 23 -41t62 -18q41 0 64 15.5t23 44.5q0 26 -23.5 41.5t-67.5 15.5h-11v71q-56 3 -95.5 24 t-64 56.5t-37 83t-12.5 102.5z" />
<glyph unicode="&#xe8;" horiz-adv-x="531" d="M61 0v1061h418v-63h-349v-428h290v-64h-290v-442h349v-64h-418zM156 1276h76l108 -144h-57z" />
<glyph unicode="&#xe9;" horiz-adv-x="531" d="M61 0v1061h418v-63h-349v-428h290v-64h-290v-442h349v-64h-418zM214 1122l107 143h73l-128 -143h-52z" />
<glyph unicode="&#xea;" horiz-adv-x="531" d="M61 0v1061h418v-63h-349v-428h290v-64h-290v-442h349v-64h-418zM111 1123l127 136h60l130 -136h-68l-92 97l-92 -97h-65z" />
<glyph unicode="&#xeb;" horiz-adv-x="531" d="M61 0v1061h418v-63h-349v-428h290v-64h-290v-442h349v-64h-418zM165 1122v129h61v-129h-61zM311 1122v129h62v-129h-62z" />
<glyph unicode="&#xec;" horiz-adv-x="190" d="M-36 1265h74l108 -143h-55zM61 0v1061h69v-1061h-69z" />
<glyph unicode="&#xed;" horiz-adv-x="190" d="M38 1123l108 144h72l-127 -144h-53zM61 0v1061h69v-1061h-69z" />
<glyph unicode="&#xee;" horiz-adv-x="190" d="M-62 1122l127 136h61l127 -136h-65l-93 97l-92 -97h-65zM61 0v1061h69v-1061h-69z" />
<glyph unicode="&#xef;" horiz-adv-x="190" d="M-9 1123v128h62v-128h-62zM61 0v1061h69v-1061h-69zM138 1123v128h62v-128h-62z" />
<glyph unicode="&#xf0;" horiz-adv-x="583" d="M-3 500v58h64v503h233q60 0 105 -19t74 -54t42.5 -83.5t13.5 -107.5v-534q0 -59 -13.5 -107.5t-42.5 -83t-74 -53.5t-105 -19h-233v500h-64zM130 64h162q90 0 129 54t39 142v540q0 88 -40 143t-128 55h-162v-440h136v-58h-136v-436z" />
<glyph unicode="&#xf1;" horiz-adv-x="592" d="M61 0v1061h91l318 -896v896h64v-1061h-78l-332 946v-946h-63zM133 1173q29 69 94 72q22 0 40 -7t35.5 -17t33.5 -18.5t33 -6.5q19 0 32.5 13t24.5 32l36 -26q-28 -68 -88 -71q-21 0 -38.5 8t-34 17.5t-33 17t-35.5 7.5q-38 0 -64 -46z" />
<glyph unicode="&#xf2;" d="M56 259v542q0 58 14 107.5t41.5 85t71.5 56t105 20.5t105.5 -20.5t73.5 -56t42.5 -85t13.5 -107.5v-542q0 -58 -13.5 -107t-42.5 -84.5t-73.5 -56t-105.5 -20.5t-105 20.5t-71.5 56t-41.5 84.5t-14 107zM126 255q0 -87 37 -143.5t125 -56.5t126.5 56.5t38.5 143.5v552 q0 86 -38.5 142.5t-126.5 56.5t-125 -57t-37 -142v-552zM164 1276h76l107 -144h-56z" />
<glyph unicode="&#xf3;" d="M56 259v542q0 58 14 107.5t41.5 85t71.5 56t105 20.5t105.5 -20.5t73.5 -56t42.5 -85t13.5 -107.5v-542q0 -58 -13.5 -107t-42.5 -84.5t-73.5 -56t-105.5 -20.5t-105 20.5t-71.5 56t-41.5 84.5t-14 107zM126 255q0 -87 37 -143.5t125 -56.5t126.5 56.5t38.5 143.5v552 q0 86 -38.5 142.5t-126.5 56.5t-125 -57t-37 -142v-552zM230 1132l108 144h73l-128 -144h-53z" />
<glyph unicode="&#xf4;" d="M56 259v542q0 58 14 107.5t41.5 85t71.5 56t105 20.5t105.5 -20.5t73.5 -56t42.5 -85t13.5 -107.5v-542q0 -58 -13.5 -107t-42.5 -84.5t-73.5 -56t-105.5 -20.5t-105 20.5t-71.5 56t-41.5 84.5t-14 107zM126 255q0 -87 37 -143.5t125 -56.5t126.5 56.5t38.5 143.5v552 q0 86 -38.5 142.5t-126.5 56.5t-125 -57t-37 -142v-552zM130 1129l128 136h60l127 -136h-65l-92 97l-93 -97h-65z" />
<glyph unicode="&#xf5;" d="M56 259v542q0 58 14 107.5t41.5 85t71.5 56t105 20.5t105.5 -20.5t73.5 -56t42.5 -85t13.5 -107.5v-542q0 -58 -13.5 -107t-42.5 -84.5t-73.5 -56t-105.5 -20.5t-105 20.5t-71.5 56t-41.5 84.5t-14 107zM126 255q0 -87 37 -143.5t125 -56.5t126.5 56.5t38.5 143.5v552 q0 86 -38.5 142.5t-126.5 56.5t-125 -57t-37 -142v-552zM129 1170q33 71 95 71q22 0 40 -7.5t35.5 -17.5t33.5 -17.5t33 -7.5q20 2 33 14t22 32l39 -25q-14 -33 -36 -52t-53 -20q-21 0 -38.5 7.5t-34 17t-33 18t-35.5 8.5q-41 0 -64 -47z" />
<glyph unicode="&#xf6;" d="M56 259v542q0 58 14 107.5t41.5 85t71.5 56t105 20.5t105.5 -20.5t73.5 -56t42.5 -85t13.5 -107.5v-542q0 -58 -13.5 -107t-42.5 -84.5t-73.5 -56t-105.5 -20.5t-105 20.5t-71.5 56t-41.5 84.5t-14 107zM126 255q0 -87 37 -143.5t125 -56.5t126.5 56.5t38.5 143.5v552 q0 86 -38.5 142.5t-126.5 56.5t-125 -57t-37 -142v-552zM184 1129v129h62v-129h-62zM330 1129v129h62v-129h-62z" />
<glyph unicode="&#xf8;" d="M56 259v542q0 58 14 107.5t41.5 85t71.5 56t105 20.5q55 0 95 -16t68 -45l29 74l34 -11l-35 -94q23 -35 33.5 -79t10.5 -98v-542q0 -58 -13.5 -107t-42.5 -84.5t-73.5 -56t-105.5 -20.5q-53 0 -94 16t-68 45l-31 -78l-34 13l37 100q-42 66 -42 172zM126 255q0 -22 2 -41 t5 -36l291 759q-20 32 -53 50.5t-83 18.5q-88 0 -125 -57t-37 -142v-552zM153 126q20 -34 52.5 -52.5t82.5 -18.5q88 0 126.5 56.5t38.5 143.5v552q0 42 -9 81z" />
<glyph unicode="&#xf9;" horiz-adv-x="569" d="M58 259v802h69v-805q0 -42 8.5 -79.5t27.5 -64.5t49.5 -42t73.5 -15q44 0 74.5 15t49.5 42t27 64.5t8 79.5v805h66v-802q0 -58 -12.5 -106.5t-39.5 -84.5t-70 -56.5t-104 -20.5t-104 20.5t-70 56.5t-40 84.5t-13 106.5zM159 1267h76l108 -144h-57z" />
<glyph unicode="&#xfa;" horiz-adv-x="569" d="M58 259v802h69v-805q0 -42 8.5 -79.5t27.5 -64.5t49.5 -42t73.5 -15q44 0 74.5 15t49.5 42t27 64.5t8 79.5v805h66v-802q0 -58 -12.5 -106.5t-39.5 -84.5t-70 -56.5t-104 -20.5t-104 20.5t-70 56.5t-40 84.5t-13 106.5zM236 1132l108 144h73l-128 -144h-53z" />
<glyph unicode="&#xfb;" horiz-adv-x="569" d="M58 259v802h69v-805q0 -42 8.5 -79.5t27.5 -64.5t49.5 -42t73.5 -15q44 0 74.5 15t49.5 42t27 64.5t8 79.5v805h66v-802q0 -58 -12.5 -106.5t-39.5 -84.5t-70 -56.5t-104 -20.5t-104 20.5t-70 56.5t-40 84.5t-13 106.5zM129 1129l127 136h61l128 -136h-66l-93 97l-92 -97 h-65z" />
<glyph unicode="&#xfc;" horiz-adv-x="569" d="M58 259v802h69v-805q0 -42 8.5 -79.5t27.5 -64.5t49.5 -42t73.5 -15q44 0 74.5 15t49.5 42t27 64.5t8 79.5v805h66v-802q0 -58 -12.5 -106.5t-39.5 -84.5t-70 -56.5t-104 -20.5t-104 20.5t-70 56.5t-40 84.5t-13 106.5zM181 1126v129h62v-129h-62zM327 1126v129h62v-129 h-62z" />
<glyph unicode="&#xfd;" horiz-adv-x="628" d="M41 1061h73l203 -558l202 558h69l-239 -653v-408h-70v408zM265 1122l109 143h71l-127 -143h-53z" />
<glyph unicode="&#xfe;" horiz-adv-x="571" d="M61 0v1061h69v-185h150q123 0 175.5 -70.5t52.5 -186.5v-116q0 -127 -59.5 -189t-186.5 -62h-132v-252h-69zM130 315h132q92 0 134 43.5t42 140.5v123q0 88 -34 138.5t-124 50.5h-150v-496z" />
<glyph unicode="&#xff;" horiz-adv-x="628" d="M41 1061h73l203 -558l202 558h69l-239 -653v-408h-70v408zM211 1123v128h62v-128h-62zM357 1123v128h63v-128h-63z" />
<glyph unicode="&#x131;" horiz-adv-x="190" d="M61 0v1061h69v-1061h-69z" />
<glyph unicode="&#x152;" horiz-adv-x="860" d="M55 263v534q0 55 11.5 103.5t38.5 84t69.5 56t101.5 20.5h531v-63h-311v-428h257v-64h-257v-442h311v-64h-531q-59 0 -101.5 20.5t-69.5 56t-38.5 84t-11.5 102.5zM124 260q0 -40 8.5 -75.5t27 -62.5t47 -42.5t71.5 -15.5h148v934h-148q-43 0 -71.5 -16t-47 -43 t-27 -62.5t-8.5 -76.5v-540z" />
<glyph unicode="&#x153;" horiz-adv-x="860" d="M55 263v534q0 55 11.5 103.5t38.5 84t69.5 56t101.5 20.5h531v-63h-311v-428h257v-64h-257v-442h311v-64h-531q-59 0 -101.5 20.5t-69.5 56t-38.5 84t-11.5 102.5zM124 260q0 -40 8.5 -75.5t27 -62.5t47 -42.5t71.5 -15.5h148v934h-148q-43 0 -71.5 -16t-47 -43 t-27 -62.5t-8.5 -76.5v-540z" />
<glyph unicode="&#x178;" horiz-adv-x="628" d="M41 1061h73l203 -558l202 558h69l-239 -653v-408h-70v408zM211 1123v128h62v-128h-62zM357 1123v128h63v-128h-63z" />
<glyph unicode="&#x2c6;" horiz-adv-x="378" d="M32 1148l127 137h61l127 -137h-65l-93 96l-92 -96h-65z" />
<glyph unicode="&#x2da;" horiz-adv-x="330" d="M64 1234q0 42 29.5 70.5t71.5 28.5t71.5 -28.5t29.5 -70.5q0 -44 -29 -73t-72 -29q-42 0 -71.5 29t-29.5 73zM100 1234q0 -29 19 -46.5t46 -17.5q26 0 45.5 17.5t19.5 46.5q0 27 -19.5 45t-45.5 18q-27 0 -46 -18t-19 -45z" />
<glyph unicode="&#x2dc;" horiz-adv-x="396" d="M33 1168q34 72 96 72q21 0 39 -7.5t35.5 -17.5t33.5 -17.5t33 -7.5q20 0 32.5 12.5t23.5 32.5l38 -24q-30 -71 -88 -73q-21 0 -39.5 8t-35 17.5t-32.5 17t-34 7.5q-40 0 -64 -45z" />
<glyph unicode="&#x401;" horiz-adv-x="531" d="M61 0v1061h418v-63h-349v-428h290v-64h-290v-442h349v-64h-418zM165 1129v129h62v-129h-62zM312 1129v129h62v-129h-62z" />
<glyph unicode="&#x410;" horiz-adv-x="660" d="M45 0l233 1063h101l236 -1063h-70l-52 235h-331l-53 -235h-64zM172 295h310l-156 687z" />
<glyph unicode="&#x411;" horiz-adv-x="586" d="M61 0v1061h429v-63h-360v-389h152q123 0 185 -54.5t62 -181.5v-120q0 -121 -55.5 -187t-179.5 -66h-233zM130 64h164q89 0 127.5 47t38.5 138v128q0 97 -45 132t-133 35h-152v-480z" />
<glyph unicode="&#x412;" horiz-adv-x="572" d="M61 0v1061h222q120 0 168.5 -57.5t48.5 -168.5v-60q0 -87 -29.5 -140t-110.5 -70q87 -17 123 -76.5t36 -150.5v-92q0 -116 -54 -181t-177 -65h-227zM130 64h158q88 0 125 47t37 136v96q0 102 -47 144t-141 42h-132v-465zM130 593h119q46 0 80.5 7.5t57 26t33.5 51.5 t11 83v68q0 83 -32 126t-117 43h-152v-405z" />
<glyph unicode="&#x413;" horiz-adv-x="523" d="M61 0v1061h407v-63h-338v-998h-69z" />
<glyph unicode="&#x414;" horiz-adv-x="740" d="M47 64h73q32 33 40.5 75.5t11.5 93.5l43 828h388v-997h88v-211h-69v147h-507v-147h-68v211zM191 64h341v934h-252l-39 -765q-3 -55 -11.5 -96.5t-38.5 -72.5z" />
<glyph unicode="&#x415;" horiz-adv-x="531" d="M61 0v1061h418v-63h-349v-428h290v-64h-290v-442h349v-64h-418z" />
<glyph unicode="&#x416;" horiz-adv-x="943" d="M42 0l278 596l-265 465h71l311 -546v546h69v-546l311 546h72l-263 -464l275 -597h-72l-252 531l-71 -122v-409h-69v411l-70 120l-252 -531h-73z" />
<glyph unicode="&#x417;" horiz-adv-x="572" d="M58 259v88h66v-92q0 -43 8.5 -79.5t28.5 -63.5t50 -42t74 -15q88 0 124 57t36 148v83q0 82 -43 130.5t-120 48.5h-59v63h63q71 0 115 51t44 125v39q0 91 -36 148.5t-124 57.5t-125 -57t-37 -142v-58h-64v54q0 58 13 106.5t40 84t70.5 56t103.5 20.5q61 0 104.5 -20.5 t71.5 -56t40.5 -85t12.5 -107.5v-26q0 -79 -37 -137.5t-107 -81.5q73 -21 108.5 -79.5t35.5 -135.5v-82q0 -58 -12.5 -107t-40.5 -84.5t-71.5 -56t-104.5 -20.5q-60 0 -103.5 20.5t-71 56t-40.5 84.5t-13 107z" />
<glyph unicode="&#x418;" horiz-adv-x="592" d="M61 0v1061h63v-908l155 434l171 474h84v-1061h-64v938l-159 -439l-175 -499h-75z" />
<glyph unicode="&#x419;" horiz-adv-x="593" d="M61 0v1061h63v-908l138 386l188 522h84v-1061h-64v938l-152 -421l-182 -517h-75zM153 1261h48q2 -44 32 -64t72 -20t72.5 20t33.5 64h46q-1 -61 -43.5 -95t-108.5 -34q-65 0 -107.5 33.5t-44.5 95.5z" />
<glyph unicode="&#x41a;" horiz-adv-x="611" d="M61 0v1061h69v-561l346 561h72l-302 -494l322 -567h-72l-293 499l-73 -116v-383h-69z" />
<glyph unicode="&#x41b;" horiz-adv-x="663" d="M44 -1v63q45 0 70 16t38 42.5t16.5 62t6.5 75.5l31 803h396v-1061h-71v998h-259l-28 -739q-3 -55 -10 -101.5t-26.5 -81.5t-55 -55.5t-94.5 -21.5h-14z" />
<glyph unicode="&#x41c;" horiz-adv-x="765" d="M61 0v1061h100l222 -938l222 938h99v-1061h-66v943l-221 -942h-70l-224 939v-940h-62z" />
<glyph unicode="&#x41d;" horiz-adv-x="592" d="M61 0v1061h69v-499h331v499h71v-1061h-71v499h-331v-499h-69z" />
<glyph unicode="&#x41e;" d="M56 259v542q0 58 14 107.5t41.5 85t71.5 56t105 20.5t105.5 -20.5t73.5 -56t42.5 -85t13.5 -107.5v-542q0 -58 -13.5 -107t-42.5 -84.5t-73.5 -56t-105.5 -20.5t-105 20.5t-71.5 56t-41.5 84.5t-14 107zM126 255q0 -87 37 -143.5t125 -56.5t126.5 56.5t38.5 143.5v552 q0 86 -38.5 142.5t-126.5 56.5t-125 -57t-37 -142v-552z" />
<glyph unicode="&#x41f;" horiz-adv-x="592" d="M61 0v1061h471v-1061h-71v998h-331v-998h-69z" />
<glyph unicode="&#x420;" horiz-adv-x="551" d="M61 0v1061h219q123 0 175.5 -70.5t52.5 -187.5v-115q0 -127 -59.5 -189t-186.5 -62h-132v-437h-69zM130 500h132q92 0 134 43.5t42 140.5v124q0 87 -34 138.5t-124 51.5h-150v-498z" />
<glyph unicode="&#x421;" horiz-adv-x="566" d="M56 259v542q0 58 13 107.5t41 85t71 56t104 20.5t104 -20.5t71 -56t41 -85t13 -107.5v-87h-67v93q0 42 -8 78t-28 63.5t-50.5 42.5t-74.5 15q-43 0 -73.5 -15t-50 -42.5t-28 -63.5t-8.5 -78v-552q0 -43 8.5 -79.5t28 -62.5t50 -41.5t73.5 -15.5q44 0 74.5 15.5t50.5 41.5 t28 62.5t8 79.5v125h67v-121q0 -58 -13 -107t-41 -84.5t-71 -56t-104 -20.5t-104 20.5t-71 56t-41 84.5t-13 107z" />
<glyph unicode="&#x422;" horiz-adv-x="587" d="M42 998v63h503v-63h-216v-998h-70v998h-217z" />
<glyph unicode="&#x423;" horiz-adv-x="645" d="M42 1061h72l124 -374l92 -284l85 285l116 373h72l-274 -864q-14 -49 -30 -86t-42.5 -62.5t-65 -38.5t-96.5 -10v62q73 -1 105.5 30t52.5 94l44 129z" />
<glyph unicode="&#x424;" horiz-adv-x="842" d="M56 382v289q0 126 56.5 196.5t187.5 70.5h86v123h68v-123h87q130 0 187 -70t57 -197v-289q0 -127 -57 -197t-187 -70h-87v-115h-68v115h-86q-130 0 -187 70.5t-57 196.5zM124 377q0 -95 40 -147t136 -52h86v698h-86q-95 0 -135.5 -52.5t-40.5 -147.5v-299zM454 178h87 q95 0 135.5 52t40.5 147v299q0 95 -40.5 147.5t-135.5 52.5h-87v-698z" />
<glyph unicode="&#x425;" horiz-adv-x="666" d="M47 0l239 550l-222 511h72l201 -456l201 456h67l-223 -511l238 -550h-75l-215 494l-215 -494h-68z" />
<glyph unicode="&#x426;" horiz-adv-x="688" d="M81 0v1061h68v-997h330v997h71v-997h88v-207h-68v143h-489z" />
<glyph unicode="&#x427;" horiz-adv-x="586" d="M56 664v397h70v-393q0 -40 10 -76.5t29.5 -64t50.5 -43.5t73 -16q132 0 167 138v455h70v-1061h-70v509q-61 -104 -186 -104q-56 0 -96.5 20t-66.5 55t-38.5 82.5t-12.5 101.5z" />
<glyph unicode="&#x428;" horiz-adv-x="854" d="M61 0v1061h69v-997h262v997h70v-997h262v997h70v-1061h-733z" />
<glyph unicode="&#x429;" horiz-adv-x="931" d="M61 0v1061h69v-997h261v997h70v-997h263l-1 997h70v-997h89v-207h-68v143h-753z" />
<glyph unicode="&#x42a;" horiz-adv-x="658" d="M15 998v63h214v-436h131q128 0 187 -62.5t59 -189.5v-115q0 -117 -52 -187.5t-175 -70.5h-220v998h-144zM229 64h150q89 0 123 51t34 138v124q0 97 -42.5 140.5t-133.5 43.5h-131v-497z" />
<glyph unicode="&#x42b;" horiz-adv-x="737" d="M61 0v1061h69v-436h130q129 0 188.5 -62.5t59.5 -189.5v-115q0 -58 -13 -106t-40 -82t-70.5 -52t-105.5 -18h-218zM130 64h149q90 0 124.5 51t34.5 138v124q0 97 -42.5 140.5t-135.5 43.5h-130v-497zM608 0v1061h69v-1061h-69z" />
<glyph unicode="&#x42c;" horiz-adv-x="560" d="M61 0v1061h69v-436h130q129 0 188.5 -62.5t59.5 -189.5v-115q0 -58 -13 -106t-40 -82t-70.5 -52t-105.5 -18h-218zM130 64h149q90 0 124.5 51t34.5 138v124q0 97 -42.5 140.5t-135.5 43.5h-130v-497z" />
<glyph unicode="&#x42d;" horiz-adv-x="566" d="M53 259v103h67v-107q0 -43 8 -79.5t28 -62.5t49.5 -41.5t73.5 -15.5t75 15.5t50 41.5t28 62.5t9 79.5v262h-217v63h217v227q0 42 -9 78t-28 63.5t-50 42.5t-75 15t-73.5 -15t-49.5 -42.5t-28 -63.5t-8 -78v-72h-65v66q0 58 13 107.5t40 85t70 56t104 20.5t104 -20.5 t71 -56t41 -85t13 -107.5v-542q0 -58 -13 -107t-41 -84.5t-71 -56t-104 -20.5t-104 20.5t-71.5 56t-41 84.5t-12.5 107z" />
<glyph unicode="&#x42e;" horiz-adv-x="836" d="M61 0v1061h69v-499h184v239q0 58 13.5 107.5t41.5 85t72 56t106 20.5q61 0 105 -20.5t72.5 -56t42.5 -85t14 -107.5v-542q0 -58 -14 -107t-42.5 -84.5t-72.5 -56t-105 -20.5q-62 0 -106 20.5t-72 56t-41.5 84.5t-13.5 107v240h-184v-499h-69zM383 255q0 -44 9.5 -80.5 t29 -63t50.5 -41.5t75 -15q88 0 126 56.5t38 143.5v552q0 86 -38 142.5t-126 56.5q-44 0 -75 -15t-50.5 -41.5t-29 -63.5t-9.5 -79v-552z" />
<glyph unicode="&#x42f;" horiz-adv-x="584" d="M50 0q17 26 21 60t4 67v165q0 87 36 143t118 74q-154 35 -154 220v92q0 113 53.5 176.5t174.5 63.5h222v-1061h-71v474h-110q-45 0 -81.5 -8.5t-63.5 -28.5t-40 -55t-13 -88v-167q0 -43 -5 -73t-18 -54h-73zM146 716q0 -54 13 -88.5t38.5 -54t61.5 -27.5t84 -8h111v460 h-149q-87 0 -123 -48t-36 -135v-99z" />
<glyph unicode="&#x430;" horiz-adv-x="660" d="M45 0l233 1063h101l236 -1063h-70l-52 235h-331l-53 -235h-64zM172 295h310l-156 687z" />
<glyph unicode="&#x431;" horiz-adv-x="586" d="M61 0v1061h429v-63h-360v-389h152q123 0 185 -54.5t62 -181.5v-120q0 -121 -55.5 -187t-179.5 -66h-233zM130 64h164q89 0 127.5 47t38.5 138v128q0 97 -45 132t-133 35h-152v-480z" />
<glyph unicode="&#x432;" horiz-adv-x="572" d="M61 0v1061h222q120 0 168.5 -57.5t48.5 -168.5v-60q0 -87 -29.5 -140t-110.5 -70q87 -17 123 -76.5t36 -150.5v-92q0 -116 -54 -181t-177 -65h-227zM130 64h158q88 0 125 47t37 136v96q0 102 -47 144t-141 42h-132v-465zM130 593h119q46 0 80.5 7.5t57 26t33.5 51.5 t11 83v68q0 83 -32 126t-117 43h-152v-405z" />
<glyph unicode="&#x433;" horiz-adv-x="523" d="M61 0v1061h407v-63h-338v-998h-69z" />
<glyph unicode="&#x434;" horiz-adv-x="740" d="M47 64h73q32 33 40.5 75.5t11.5 93.5l43 828h388v-997h88v-211h-69v147h-507v-147h-68v211zM191 64h341v934h-252l-39 -765q-3 -55 -11.5 -96.5t-38.5 -72.5z" />
<glyph unicode="&#x435;" horiz-adv-x="531" d="M61 0v1061h418v-63h-349v-428h290v-64h-290v-442h349v-64h-418z" />
<glyph unicode="&#x436;" horiz-adv-x="943" d="M42 0l278 596l-265 465h71l311 -546v546h69v-546l311 546h72l-263 -464l275 -597h-72l-252 531l-71 -122v-409h-69v411l-70 120l-252 -531h-73z" />
<glyph unicode="&#x437;" horiz-adv-x="572" d="M58 259v88h66v-92q0 -43 8.5 -79.5t28.5 -63.5t50 -42t74 -15q88 0 124 57t36 148v83q0 82 -43 130.5t-120 48.5h-59v63h63q71 0 115 51t44 125v39q0 91 -36 148.5t-124 57.5t-125 -57t-37 -142v-58h-64v54q0 58 13 106.5t40 84t70.5 56t103.5 20.5q61 0 104.5 -20.5 t71.5 -56t40.5 -85t12.5 -107.5v-26q0 -79 -37 -137.5t-107 -81.5q73 -21 108.5 -79.5t35.5 -135.5v-82q0 -58 -12.5 -107t-40.5 -84.5t-71.5 -56t-104.5 -20.5q-60 0 -103.5 20.5t-71 56t-40.5 84.5t-13 107z" />
<glyph unicode="&#x438;" horiz-adv-x="592" d="M61 0v1061h63v-908l123 350l203 558h84v-1061h-64v938l-161 -445l-173 -493h-75z" />
<glyph unicode="&#x439;" horiz-adv-x="593" d="M61 0v1061h63v-908l134 378l192 530h84v-1061h-64v938l-334 -938h-75zM153 1258h48q2 -45 32 -65t72 -20t72.5 19.5t33.5 65.5h46q-1 -62 -43.5 -95.5t-108.5 -33.5q-65 0 -107.5 33.5t-44.5 95.5z" />
<glyph unicode="&#x43a;" horiz-adv-x="611" d="M61 0v1061h69v-561l346 561h72l-302 -494l322 -567h-72l-293 499l-73 -116v-383h-69z" />
<glyph unicode="&#x43b;" horiz-adv-x="663" d="M44 -1v63q45 0 70 16t38 42.5t16.5 62t6.5 75.5l31 803h396v-1061h-71v998h-259l-28 -739q-3 -55 -10 -101.5t-26.5 -81.5t-55 -55.5t-94.5 -21.5h-14z" />
<glyph unicode="&#x43c;" horiz-adv-x="765" d="M61 0v1061h100l222 -938l222 938h99v-1061h-66v943l-221 -942h-70l-224 939v-940h-62z" />
<glyph unicode="&#x43d;" horiz-adv-x="592" d="M61 0v1061h69v-499h331v499h71v-1061h-71v499h-331v-499h-69z" />
<glyph unicode="&#x43e;" d="M56 259v542q0 58 14 107.5t41.5 85t71.5 56t105 20.5t105.5 -20.5t73.5 -56t42.5 -85t13.5 -107.5v-542q0 -58 -13.5 -107t-42.5 -84.5t-73.5 -56t-105.5 -20.5t-105 20.5t-71.5 56t-41.5 84.5t-14 107zM126 255q0 -87 37 -143.5t125 -56.5t126.5 56.5t38.5 143.5v552 q0 86 -38.5 142.5t-126.5 56.5t-125 -57t-37 -142v-552z" />
<glyph unicode="&#x43f;" horiz-adv-x="592" d="M61 0v1061h471v-1061h-71v998h-331v-998h-69z" />
<glyph unicode="&#x440;" horiz-adv-x="551" d="M61 0v1061h219q123 0 175.5 -70.5t52.5 -187.5v-115q0 -127 -59.5 -189t-186.5 -62h-132v-437h-69zM130 500h132q92 0 134 43.5t42 140.5v124q0 87 -34 138.5t-124 51.5h-150v-498z" />
<glyph unicode="&#x441;" horiz-adv-x="566" d="M56 259v542q0 58 13 107.5t41 85t71 56t104 20.5t104 -20.5t71 -56t41 -85t13 -107.5v-87h-67v93q0 42 -8 78t-28 63.5t-50.5 42.5t-74.5 15q-43 0 -73.5 -15t-50 -42.5t-28 -63.5t-8.5 -78v-552q0 -43 8.5 -79.5t28 -62.5t50 -41.5t73.5 -15.5q44 0 74.5 15.5t50.5 41.5 t28 62.5t8 79.5v125h67v-121q0 -58 -13 -107t-41 -84.5t-71 -56t-104 -20.5t-104 20.5t-71 56t-41 84.5t-13 107z" />
<glyph unicode="&#x442;" horiz-adv-x="587" d="M42 998v63h503v-63h-216v-998h-70v998h-217z" />
<glyph unicode="&#x443;" horiz-adv-x="645" d="M42 1061h72l124 -374l92 -284l85 285l116 373h72l-274 -864q-14 -49 -30 -86t-42.5 -62.5t-65 -38.5t-96.5 -10v62q73 -1 105.5 30t52.5 94l44 129z" />
<glyph unicode="&#x444;" horiz-adv-x="842" d="M56 382v289q0 126 56.5 196.5t187.5 70.5h86v123h68v-123h87q130 0 187 -70t57 -197v-289q0 -127 -57 -197t-187 -70h-87v-115h-68v115h-86q-130 0 -187 70.5t-57 196.5zM124 377q0 -95 40 -147t136 -52h86v698h-86q-95 0 -135.5 -52.5t-40.5 -147.5v-299zM454 178h87 q95 0 135.5 52t40.5 147v299q0 95 -40.5 147.5t-135.5 52.5h-87v-698z" />
<glyph unicode="&#x445;" horiz-adv-x="666" d="M47 0l239 550l-222 511h72l201 -456l201 456h67l-223 -511l238 -550h-75l-215 494l-215 -494h-68z" />
<glyph unicode="&#x446;" horiz-adv-x="688" d="M81 0v1061h68v-997h330v997h71v-997h88v-207h-68v143h-489z" />
<glyph unicode="&#x447;" horiz-adv-x="586" d="M56 664v397h70v-393q0 -40 10 -76.5t29.5 -64t50.5 -43.5t73 -16q132 0 167 138v455h70v-1061h-70v509q-61 -104 -186 -104q-56 0 -96.5 20t-66.5 55t-38.5 82.5t-12.5 101.5z" />
<glyph unicode="&#x448;" horiz-adv-x="854" d="M61 0v1061h69v-997h262v997h70v-997h262v997h70v-1061h-733z" />
<glyph unicode="&#x449;" horiz-adv-x="931" d="M61 0v1061h69v-997h261v997h70v-997h263l-1 997h70v-997h89v-207h-68v143h-753z" />
<glyph unicode="&#x44a;" horiz-adv-x="658" d="M15 998v63h214v-436h131q128 0 187 -62.5t59 -189.5v-115q0 -117 -52 -187.5t-175 -70.5h-220v998h-144zM229 64h150q89 0 123 51t34 138v124q0 97 -42.5 140.5t-133.5 43.5h-131v-497z" />
<glyph unicode="&#x44b;" horiz-adv-x="737" d="M61 0v1061h69v-436h130q129 0 188.5 -62.5t59.5 -189.5v-115q0 -58 -13 -106t-40 -82t-70.5 -52t-105.5 -18h-218zM130 64h149q90 0 124.5 51t34.5 138v124q0 97 -42.5 140.5t-135.5 43.5h-130v-497zM608 0v1061h69v-1061h-69z" />
<glyph unicode="&#x44c;" horiz-adv-x="560" d="M61 0v1061h69v-436h130q129 0 188.5 -62.5t59.5 -189.5v-115q0 -58 -13 -106t-40 -82t-70.5 -52t-105.5 -18h-218zM130 64h149q90 0 124.5 51t34.5 138v124q0 97 -42.5 140.5t-135.5 43.5h-130v-497z" />
<glyph unicode="&#x44d;" horiz-adv-x="566" d="M53 259v103h67v-107q0 -43 8 -79.5t28 -62.5t49.5 -41.5t73.5 -15.5t75 15.5t50 41.5t28 62.5t9 79.5v262h-217v63h217v227q0 42 -9 78t-28 63.5t-50 42.5t-75 15t-73.5 -15t-49.5 -42.5t-28 -63.5t-8 -78v-72h-65v66q0 58 13 107.5t40 85t70 56t104 20.5t104 -20.5 t71 -56t41 -85t13 -107.5v-542q0 -58 -13 -107t-41 -84.5t-71 -56t-104 -20.5t-104 20.5t-71.5 56t-41 84.5t-12.5 107z" />
<glyph unicode="&#x44e;" horiz-adv-x="836" d="M61 0v1061h69v-499h184v239q0 58 13.5 107.5t41.5 85t72 56t106 20.5q61 0 105 -20.5t72.5 -56t42.5 -85t14 -107.5v-542q0 -58 -14 -107t-42.5 -84.5t-72.5 -56t-105 -20.5q-62 0 -106 20.5t-72 56t-41.5 84.5t-13.5 107v240h-184v-499h-69zM383 255q0 -44 9.5 -80.5 t29 -63t50.5 -41.5t75 -15q88 0 126 56.5t38 143.5v552q0 86 -38 142.5t-126 56.5q-44 0 -75 -15t-50.5 -41.5t-29 -63.5t-9.5 -79v-552z" />
<glyph unicode="&#x44f;" horiz-adv-x="584" d="M50 0q17 26 21 60t4 67v165q0 87 36 143t118 74q-154 35 -154 220v92q0 113 53.5 176.5t174.5 63.5h222v-1061h-71v474h-110q-45 0 -81.5 -8.5t-63.5 -28.5t-40 -55t-13 -88v-167q0 -43 -5 -73t-18 -54h-73zM146 716q0 -54 13 -88.5t38.5 -54t61.5 -27.5t84 -8h111v460 h-149q-87 0 -123 -48t-36 -135v-99z" />
<glyph unicode="&#x451;" horiz-adv-x="531" d="M61 0v1061h418v-63h-349v-428h290v-64h-290v-442h349v-64h-418zM165 1129v129h62v-129h-62zM312 1129v129h62v-129h-62z" />
<glyph unicode="&#x2000;" horiz-adv-x="682" />
<glyph unicode="&#x2001;" horiz-adv-x="1365" />
<glyph unicode="&#x2002;" horiz-adv-x="682" />
<glyph unicode="&#x2003;" horiz-adv-x="1365" />
<glyph unicode="&#x2004;" horiz-adv-x="455" />
<glyph unicode="&#x2005;" horiz-adv-x="341" />
<glyph unicode="&#x2006;" horiz-adv-x="227" />
<glyph unicode="&#x2007;" horiz-adv-x="227" />
<glyph unicode="&#x2008;" horiz-adv-x="170" />
<glyph unicode="&#x2009;" horiz-adv-x="273" />
<glyph unicode="&#x200a;" horiz-adv-x="75" />
<glyph unicode="&#x2010;" horiz-adv-x="393" d="M58 499v63h279v-63h-279z" />
<glyph unicode="&#x2011;" horiz-adv-x="393" d="M58 499v63h279v-63h-279z" />
<glyph unicode="&#x2012;" horiz-adv-x="393" d="M58 499v63h279v-63h-279z" />
<glyph unicode="&#x2013;" horiz-adv-x="631" d="M39 502v57h555v-57h-555z" />
<glyph unicode="&#x2014;" horiz-adv-x="1015" d="M39 502v57h939v-57h-939z" />
<glyph unicode="&#x2018;" horiz-adv-x="202" d="M61 813v127l43 121h31l-31 -115h25v-133h-68z" />
<glyph unicode="&#x2019;" horiz-adv-x="202" d="M68 813l30 114h-23v134h68v-127l-45 -121h-30z" />
<glyph unicode="&#x201a;" horiz-adv-x="202" d="M68 -115l30 115h-23v133h68v-127l-45 -121h-30z" />
<glyph unicode="&#x201c;" horiz-adv-x="321" d="M61 813v127l43 121h31l-31 -115h25v-133h-68zM179 813v127l44 121h32l-32 -115h24v-133h-68z" />
<glyph unicode="&#x201d;" horiz-adv-x="321" d="M61 813l31 114h-24v134h68v-127l-44 -121h-31zM181 813l30 114h-25v134h69v-127l-44 -121h-30z" />
<glyph unicode="&#x201e;" horiz-adv-x="328" d="M68 -115l30 115h-23v133h68v-127l-45 -121h-30zM194 -115l32 115h-25v133h67v-127l-42 -121h-32z" />
<glyph unicode="&#x2026;" horiz-adv-x="428" d="M61 0v133h68v-133h-68zM181 0v133h66v-133h-66zM302 0v133h67v-133h-67z" />
<glyph unicode="&#x202f;" horiz-adv-x="273" />
<glyph unicode="&#x2039;" horiz-adv-x="259" d="M47 531l99 375h66l-97 -375l97 -384h-66z" />
<glyph unicode="&#x203a;" horiz-adv-x="259" d="M47 149l97 383l-97 376h67l98 -376l-98 -383h-67z" />
<glyph unicode="&#x205f;" horiz-adv-x="341" />
<glyph unicode="&#x20ac;" horiz-adv-x="601" d="M39 432v39h61v125h-61v40h61v165q0 57 12 106t39.5 85.5t69.5 57t103 20.5t103.5 -20.5t70 -57t39 -85.5t11.5 -106v-57h-66v63q0 42 -8.5 78t-26.5 63.5t-48 42.5t-73 15t-72.5 -15t-48.5 -42.5t-27.5 -63.5t-8.5 -78v-171h293v-40h-293v-125h293v-39h-293v-177 q0 -43 8.5 -79.5t27 -62.5t48 -41.5t73.5 -15.5q42 0 72.5 15.5t48.5 41.5t26.5 62.5t8.5 79.5v69h66v-65q0 -58 -11.5 -106.5t-39 -84.5t-70 -56.5t-103.5 -20.5t-103 20.5t-69.5 56.5t-39.5 84.5t-12 106.5v173h-61z" />
<glyph unicode="&#x2122;" horiz-adv-x="878" d="M21 1017v44h320v-44h-135v-495h-48v495h-137zM412 522v539h67l141 -461l139 461h67v-539h-45v464l-139 -458h-46l-140 458v-464h-44z" />
<glyph unicode="&#x25fc;" horiz-adv-x="1060" d="M0 0v1061h1061v-1061h-1061z" />
<glyph d="M56 259v542q0 60 14 109t42.5 85t72.5 55.5t104 19.5q61 0 105 -19.5t73 -55.5t42.5 -85t13.5 -109v-542q0 -58 -13.5 -107t-42.5 -84.5t-73 -56t-105 -20.5q-60 0 -104 20.5t-72.5 56t-42.5 84.5t-14 107zM126 256q0 -88 37.5 -144.5t125.5 -56.5t126 56.5t38 144.5v551 q0 86 -38 142.5t-126 56.5t-125.5 -57t-37.5 -142v-551z" />
<glyph horiz-adv-x="425" d="M42 853v61q79 6 119 47.5t62 101.5h55v-1063h-70v943q-29 -38 -71 -61.5t-95 -28.5z" />
<glyph horiz-adv-x="557" d="M53 0v52q0 94 29 165t72 129.5t93 109t93 102t72 109t29 130.5q0 92 -35.5 150.5t-126.5 58.5q-44 0 -74 -15.5t-49.5 -44t-27.5 -65.5t-8 -80v-72h-67v68q0 58 12.5 108t40 86.5t71 57.5t105.5 21t105.5 -20.5t70.5 -57t40 -85.5t13 -107q0 -77 -29 -138.5t-71 -116 t-92.5 -105.5t-93.5 -106t-72 -118.5t-30 -142.5v-9h379v-64h-449z" />
<glyph horiz-adv-x="564" d="M53 259v61h67v-64q0 -44 8 -80.5t28 -63.5t50 -42t74 -15q89 0 126 57t37 148v83q0 83 -40.5 129t-117.5 50h-73v63h76q72 5 113.5 52.5t41.5 124.5v38q0 91 -36.5 148.5t-126.5 57.5q-88 0 -124 -57t-36 -142v-43h-67v37q0 58 12.5 107.5t41 85t71.5 56t105 20.5 q61 0 104.5 -20.5t71 -56t40.5 -85t13 -107.5v-25q0 -78 -37 -137t-105 -83q73 -21 107.5 -78.5t34.5 -136.5v-82q0 -58 -13 -107t-40.5 -84.5t-71 -56t-104.5 -20.5q-62 0 -105 20.5t-71.5 56t-41 84.5t-12.5 107z" />
<glyph horiz-adv-x="610" d="M47 235v65l352 763h78v-765h90v-63h-90v-235h-69v235h-361zM111 298h297v632z" />
<glyph horiz-adv-x="564" d="M55 259v58h66v-61q0 -42 8.5 -78.5t28.5 -63.5t50 -42.5t74 -15.5q42 0 73 15.5t50 42.5t28.5 63.5t9.5 78.5v179q0 42 -9.5 78.5t-28.5 64t-50 42.5t-73 15q-58 0 -97 -31t-55 -90v-18h-66l28 567h398v-65h-335l-20 -381q54 84 171 83q55 0 94.5 -19.5t64.5 -54.5 t36 -82.5t11 -102.5v-182q0 -58 -13 -107t-40.5 -84.5t-71 -56t-104.5 -20.5q-60 0 -103.5 20.5t-71 56t-40.5 84.5t-13 107z" />
<glyph horiz-adv-x="578" d="M56 259v539q0 60 14 110t41.5 86.5t72.5 56t107 19.5q61 0 104 -19.5t71 -54.5t40.5 -83.5t12.5 -105.5v-13h-66v17q0 85 -36.5 140t-124.5 55q-45 0 -76 -15t-51.5 -42.5t-29.5 -66t-9 -85.5v-246q26 44 71.5 71t117.5 27q56 0 95.5 -20t64.5 -55t37.5 -82t12.5 -103 v-130q0 -58 -14 -107t-42.5 -84.5t-72.5 -56t-105 -20.5q-62 0 -106 20.5t-72.5 56t-42.5 84.5t-14 107zM126 256q0 -88 37.5 -144t127.5 -56q88 0 125.5 56t37.5 144v129q0 85 -37.5 141.5t-125.5 56.5q-90 0 -127.5 -56.5t-37.5 -141.5v-129z" />
<glyph horiz-adv-x="542" d="M44 998v65h455v-64l-293 -999h-71l293 998h-384z" />
<glyph horiz-adv-x="587" d="M53 253v76q0 85 32 144t110 83q-77 22 -109.5 80t-32.5 143v34q0 118 60.5 187.5t180.5 69.5q121 0 181 -70t60 -187v-34q0 -82 -32.5 -142t-106.5 -81q77 -22 108 -83t31 -144v-76q0 -118 -59 -190t-182 -72q-122 0 -181.5 72.5t-59.5 189.5zM123 255q0 -93 42.5 -146.5 t128.5 -53.5t128.5 53.5t42.5 146.5v80q0 187 -171 187t-171 -187v-80zM123 767q0 -182 171 -182t171 182v44q0 94 -42.5 144.5t-128.5 50.5q-85 0 -128 -50.5t-43 -144.5v-44z" />
<glyph horiz-adv-x="578" d="M55 673v128q0 60 13.5 109t42 85t72.5 56.5t105 20.5t105.5 -20.5t72.5 -56.5t42 -85t14 -109v-539q0 -59 -13 -109t-42 -85.5t-73 -56t-106 -20.5q-61 0 -105 19.5t-71.5 54.5t-41.5 84t-14 107v14h67v-17q0 -87 37.5 -142.5t125.5 -55.5q90 0 127.5 57t37.5 153v261 q-25 -59 -70.5 -85.5t-117.5 -26.5q-56 0 -95 19.5t-64.5 54t-37 82t-11.5 103.5zM124 677q0 -86 38 -143t126 -57t125.5 57t37.5 143v130q0 86 -37.5 142.5t-125.5 56.5t-126 -57t-38 -142v-130z" />
</font>
</defs>
</svg>
